<svg preserveAspectRatio="xMidYMid meet" data-bbox="0 0.5 135.471 28" xmlns="http://www.w3.org/2000/svg" viewBox="0 0 136 29" height="29" width="136" data-type="ugc" role="img" aria-label="Devzery Logo - API Regression Testing Tool">
    <g>
        <g clip-path="url(#e8a1f324-5f37-4db5-a4d1-f6f5226e9cb6_comp-lyo5t8d4_r_comp-lyihinxe)">
            <path fill="#F257A0" d="M.607 15.628 8.924 7.11a.25.25 0 0 1 .173-.072h5.591c.196 0 .302.209.178.342L.053 23.409a.2.2 0 0 0-.053.133V28.5h18.3s.03 0 .05-.003c.33-.069 4.18-.918 7.28-4.246 3.098-3.327 3.426-5.255 3.456-5.46 0-.013.004-.02.012-.034.12-.232 1.455-2.976.558-9.483 0-.017-.027-.024-.038-.01L17.746 22.025a.24.24 0 0 1-.174.076l-6.409.034c-.196 0-.301-.202-.18-.342L26.194 4.687S23.563 1.292 18.564.5H0v15.732z"></path>
            <path fill="url(#0e1d45d2-82cd-4193-a688-9fdb9d4e94ec_comp-lyo5t8d4_r_comp-lyihinxe)" d="M36.362 21.63V7.997h6.447q2.259 0 3.973.837 1.715.838 2.669 2.357.974 1.519.974 3.623 0 2.085-.974 3.623-.954 1.52-2.669 2.357-1.714.838-3.973.838zm3.856-3.077h2.435q1.169 0 2.026-.429a3.26 3.26 0 0 0 1.363-1.285q.487-.858.487-2.026 0-1.188-.487-2.026a3.14 3.14 0 0 0-1.363-1.266q-.858-.448-2.026-.448h-2.435zm16.17-5.279h6.331v2.883h-6.33zm.273 5.376h7.13v2.98H52.843V7.997h10.693v2.98H56.66zm13.657 2.98L64.494 7.997h4.168L73.57 19.8h-2.454l5.026-11.803h3.817L74.116 21.63zm10.242 0v-2.415l8.025-9.525.468 1.364h-8.317V7.996H92.48v2.415l-8.025 9.525-.467-1.364h8.784v3.059zm17.837-8.356h6.33v2.883h-6.33zm.273 5.376h7.129v2.98H94.852V7.997h10.693v2.98H98.67zm9.658 2.98V7.997h6.233q1.87 0 3.214.604 1.364.603 2.104 1.753.74 1.13.74 2.688 0 1.538-.74 2.668-.74 1.11-2.104 1.714-1.344.585-3.214.585h-4.09l1.714-1.617v5.24zm8.434 0-3.389-4.966h4.11l3.409 4.967zm-4.577-4.83-1.714-1.773h3.857q1.207 0 1.792-.526.604-.525.604-1.46 0-.955-.604-1.48-.585-.527-1.792-.527h-3.857l1.714-1.772zm14.209 4.83v-5.765l.896 2.318-6.097-10.187h4.071l4.402 7.382h-2.357l4.422-7.382h3.74l-6.077 10.187.857-2.318v5.766z"></path>
        </g>
        <defs fill="none">
            <linearGradient gradientUnits="userSpaceOnUse" y2="14.63" x2="135.998" y1="14.63" x1="34.998" id="0e1d45d2-82cd-4193-a688-9fdb9d4e94ec_comp-lyo5t8d4_r_comp-lyihinxe">
                <stop stop-color="#F257A0"></stop>
                <stop stop-color="#C208D5" offset="1"></stop>
            </linearGradient>
            <clipPath id="e8a1f324-5f37-4db5-a4d1-f6f5226e9cb6_comp-lyo5t8d4_r_comp-lyihinxe">
                <path fill="#ffffff" d="M136 .5v28H0V.5z"></path>
            </clipPath>
        </defs>
    </g>
</svg>